# xmcd
#
# Track frame offsets: 
#        150
#        11378
#        24721
#        37787
#        49286
#        61654
#        72183
#        83875
#        97283
#        109293
#        121127
#        131895
#        149077
#        162117
#        172694
#        183805
#        194190
#        204875
#        215039
#        241921
#
# Disc length: 4017 seconds
#
# Revision: 2
# Processed by: cddbd v1.5.2PL0 Copyright (c) Steve Scherf et al.
# Submitted via: ExactAudioCopy v0.95b4
#
DISCID=1d0faf14
DTITLE=Lynette Morgan and Her Tennessee Rhythm Riders - Little Red Wagon
DYEAR=1999
DGENRE=Rockabilly
TTITLE0=Angel In Disguise
TTITLE1=Little Red Wagon
TTITLE2=Viva Las Vegas
TTITLE3=Haunted House
TTITLE4=Feelin' Low
TTITLE5=Cool Down
TTITLE6=Would It Matter At All
TTITLE7=Honky Tonk Angels
TTITLE8=Ramblin' Rose
TTITLE9=So Long, Good Luck
TTITLE10=Bug Eyed Boogie
TTITLE11=Milk Cow blues
TTITLE12=Doghouse Blues
TTITLE13=Rhumba boogie
TTITLE14=Boxcar Annie
TTITLE15=How Can I Face Tomorrow
TTITLE16=I'll Be Waitin' For You
TTITLE17=Rider Boogie
TTITLE18=Leavin' On Your Mind
TTITLE19=Data Track
EXTD=
EXTT0=
EXTT1=
EXTT2=
EXTT3=
EXTT4=
EXTT5=
EXTT6=
EXTT7=
EXTT8=
EXTT9=
EXTT10=
EXTT11=
EXTT12=
EXTT13=
EXTT14=
EXTT15=
EXTT16=
EXTT17=
EXTT18=
EXTT19=
PLAYORDER=
